<svg version="1.0" xmlns="http://www.w3.org/2000/svg" width="1170.7" height="1172" viewBox="0 0 878 879"><path d="M824 371l-10 7a809 809 0 01-556 166c-85-4-169-19-247-44l-9-3c-2 0-2 8-2 157v157l77-1a1608 1608 0 01112 1l23-7c51-16 130-46 189-74a1639 1639 0 00369-246 2658 2658 0 0184-71l4-6-10-13-17-24c0-1-3-1-7 1z" fill="#0166AF" stroke="#0166AF" stroke-width=".1"/><g fill="#00A852" stroke="#00A852"><path d="M421 2c-18 2-38 9-61 21-34 16-56 32-94 65-37 32-86 82-128 132-21 26-25 32-21 32l27 8a887 887 0 00440 39 647 647 0 00148-47l6-2-2-4c-3-6-19-25-61-75A700 700 0 00528 32C487 7 454-2 421 2zM866 564c-52 48-115 96-195 148a2420 2420 0 01-184 111 4736 4736 0 0150 4 5216 5216 0 00183 9l158 8V553l-12 11z" stroke-width=".1"/></g></svg>