<svg xmlns="http://www.w3.org/2000/svg" width="245" height="245"><g transform="translate(-178.2 -354.1) scale(1.01233)"><circle cx="297.6" cy="469.5" r="70.1" fill="#94b43b"/><path fill="#fff" d="M247 445.5v23.2c0 12.8 7.6 23.2 23.3 23.2h23.3v-46.4h-7.7v24c0 8.2-7 14.8-15.6 14.8s-15.5-6.6-15.5-14.7v-24.1H247zM347.9 492v-23.3c0-12.8-7.6-23.2-23.3-23.2h-23.2v46.4h7.7v-24c0-8.2 7-14.8 15.5-14.8 8.6 0 15.5 6.6 15.5 14.7V492h7.8z"/><g font-family="Ancizar Sans" font-size="20.9" font-weight="400" letter-spacing="6.3" text-anchor="middle" word-spacing="0" style="line-height:0%;text-align:center"><path d="M213 501c2.9-1 3.7-3.1 2.8-5.8-1-3.2-3.2-4.4-6.2-3.4l-7.7 2.4.5 1.7 8.1-2.5c2-.6 3.1.2 3.6 1.8.6 1.8.1 3.4-2.3 4.1l-7.6 2.4.6 1.8 8.2-2.5zM211.7 472.4l-.2-1.8-12.7 1v1.6l9.9-.7-9.4 7.1.2 1.9 12.7-.9v-1.7l-10 .7 9.5-7.2zM199.6 457.3l-.2 1.9 12.7 1.4.2-1.9-12.7-1.4zM215.5 444.1l-11-8.1-.5 1.8 9.2 6.7-11.3.5-.6 2 13.5-.8.7-2zM220.2 432l3.5-6.6-1.3-1-2.7 5.2-3.9-2 2.3-4.1-1.2-.9-2.3 4.3-3.6-2 2.6-4.5-1.3-1-3.4 6.6 11.3 6zM226 410.8l-1.1 1.3-3.7-3 .9-1.1c1-1.3 2.4-1.5 3.7-.5 1.2 1 1 2.3.2 3.3zm.7 1.2l.5-.7 6 1.3 1.3-1.7-6.6-1.2c.3-1.4 0-3-1.3-4-1.6-1.4-3.6-1-5.3 1.1l-2.4 2.9 10 8.1 1.1-1.5-4-3.4.7-.9zM239 398.9c2.3-.7 3-.5 3.8.4.7 1 .4 2-.7 3a9 9 0 01-3.1 1.5l.8 1.6c.7-.3 2-1 2.7-1.6 2.4-2 2.8-4.3 1.3-6.1-1-1.2-2.1-1.6-5-.7-1.9.6-2.7.5-3.5-.3-.7-.9-.5-1.8.5-2.7a9 9 0 013-1.5l-.8-1.6c-.6.2-1.6.8-2.7 1.7-2.1 1.7-2.4 4-1.2 5.5 1.1 1.3 2.5 1.5 5 .8zM249.1 383.4l-1.7 1 6.4 11 1.7-.9-6.4-11zM260.2 378l4.2 11.8c.7-.1 2.2-.4 3.4-.9 3.8-1.3 5.8-4.8 4.3-8.9-1.2-3.5-4.3-4.8-7.8-3.5l-4.1 1.5zm2.3.6l1.7-.6c2.6-.9 5 0 6.2 3 1.2 3.6-.3 5.6-2.4 6.3-.7.3-1.6.5-2.3.6l-3.2-9.3zM288.2 378.6l-3.7.5 1.2-5.7 2.5 5.2zm2.5 5.1l2-.2-6-12.2-2.2.3-3 13.3 1.8-.3.9-4 4.7-.7 1.8 3.8zM302.3 370.7l-1.2 12.6c.7.2 2.2.5 3.4.6 4.1.4 7.3-2 7.8-6.2.3-3.8-2-6.2-5.6-6.5l-4.4-.5zm1.8 1.6l1.8.2c2.8.3 4.7 2 4.4 5.3-.4 3.8-2.7 5-5 4.7-.6 0-1.5-.2-2.2-.4l1-9.8zM338 393.6l1.6.7 5.6-11.5-1.5-.7-4.3 8.8-1.5-11.6-1.7-.8-5.6 11.5 1.5.7 4.4-9 1.6 11.9zM355.8 399l-3-2.3 5-3.2-2 5.6zm-2 5.4l1.7 1.3 4.3-12.9-1.6-1.3-11.6 7.1 1.5 1.2 3.5-2.3 3.7 3-1.4 4zM368.4 417a7.6 7.6 0 01-2.5-2c-1.5-1.7-1.9-4.3 1.1-6.8 3-2.4 5.1-1.5 6.3-.2.8 1 1.4 2.3 1.7 3.1l1.5-.6c-.2-.7-1-2-1.7-3-2.5-3-6.3-3-9.4-.5-3.2 2.7-3.3 6-1 8.8 1 1.2 2.3 2 3 2.4l1-1.2zM383.8 421.2l-1-1.6-11.1 6.3 1 1.7 11-6.4zM387 444.8c3.9-1.3 5.3-4.3 4.3-7.3-1.2-3.6-4.5-5.3-8.6-3.9-3.9 1.4-5.3 4.4-4.3 7.4 1.2 3.5 4.5 5.2 8.7 3.8zm-1.1-1.6c-3.3 1-5.2-.1-5.8-2-.9-2.3 0-4.6 3.7-6 3.2-1 5.2.2 5.8 2 .9 2.4 0 4.7-3.7 6zM383.4 464.1l.2 1.8 12.7-1.3-.1-1.7-9.8 1 9.1-7.4-.2-1.9-12.7 1.3.2 1.7 9.8-1-9.2 7.5zM388 482l.5-3.7 5.3 2.5-5.7 1.3zm-5.5 1.3l-.2 2 13.2-3 .2-2.2-12.1-6-.2 1.8 3.8 1.8-.6 4.7-4.1 1zM380.2 493.4L378 500l1.5.7 1.5-5 10.8 3.5.6-1.9-12.2-4z" style="-inkscape-font-specification:'Ancizar Sans'"/></g><g font-family="Ancizar Sans" font-size="20.9" font-weight="400" letter-spacing="6.2" text-anchor="middle" word-spacing="0" style="line-height:0%;text-align:center"><path d="M228.9 522.7l-9.5 8.2c.4.7 1.2 1.9 2 2.8 2.8 3.1 6.7 3.7 10 .8 2.8-2.4 2.8-5.7.4-8.5l-2.9-3.3zm.2 2.3l1.2 1.4c1.8 2.1 2 4.7-.5 6.9-2.9 2.4-5.3 1.7-6.8 0l-1.3-1.8 7.4-6.5zM232.8 545.1l5.9 4.7 1.2-1-4.6-3.6 2.7-3.5 3.6 3 1.1-1-3.8-3 2.5-3.2 4 3.3 1.2-1-5.8-4.7-8 10zM264.5 561.3c-1 0-2.1-.1-3.1-.5-2.2-1-3.7-3-2.2-6.6 1.5-3.5 3.8-3.8 5.5-3 1.1.4 2.3 1.2 2.9 1.9l1-1.3c-.4-.6-1.7-1.4-2.9-1.9-3.6-1.5-6.9.2-8.4 4-1.7 3.8-.2 6.8 3.1 8.2 1.4.6 3 .8 3.8.7l.3-1.5zM284.1 561.6c.8-4-1-6.8-4.1-7.4-3.7-.8-6.8 1.1-7.7 5.4-.9 4 1 6.7 4 7.4 3.7.8 6.9-1.2 7.8-5.4zm-2 .2c-.7 3.3-2.8 4.3-4.7 4-2.4-.6-4-2.4-3.1-6.4.7-3.3 2.7-4.4 4.7-4 2.4.6 4 2.4 3 6.4zM291.7 568.9l7 .2.3-1.6h-5.3l.4-11.4h-2l-.4 12.8zM317 560.5c-.6-4-3.2-6-6.4-5.5-3.7.5-6 3.4-5.4 7.7.6 4 3.3 6 6.4 5.6 3.7-.6 6-3.5 5.4-7.8zm-1.8.9c.5 3.3-1 5-3 5.3-2.5.4-4.6-.8-5.1-4.8-.5-3.4 1-5 3-5.4 2.4-.3 4.5.9 5 4.9zM332 562.9l1.6-.6-.3-11 4.6 9.3 1.8-.6-5.8-11.5-2.1.8.2 10.8-7.1-8.2-2 .8 3.1 12.5 1.7-.7-2.8-10 7.2 8.4zM346.9 547.7l-1.4.8-2.3-3.7 1-.7c1.6-1 2.9-.7 3.6.5.7 1.1.4 2.2-1 3zm3.5 4.6l-1.8 1-2.3-3.7 1.3-1c1.7-1 3.1-.9 4 .4.8 1.3.2 2.4-1.2 3.3zm-2.6 3.2l2.8-1.8c2.8-1.8 3.7-4 2.4-6-1-1.5-2.7-1.5-4-1 .7-1 .8-2.4 0-3.6-.9-1.5-2.8-1.7-5-.4l-3.1 2 6.9 10.8zM355.1 534.4l-1.4 1.3 8.3 9.6 1.5-1.2-8.4-9.7zM370.3 529.3L368 532l-3-5 5.4 2.2zm5.3 2l1.3-1.5-12.6-4.8-1.4 1.6 6.7 11.8 1.2-1.4-2.2-3.6 3.1-3.6 4 1.5z" style="-inkscape-font-specification:'Ancizar Sans'"/></g></g></svg>