<?xml version="1.0" standalone="no"?>
<!DOCTYPE svg PUBLIC "-//W3C//DTD SVG 20010904//EN"
 "http://www.w3.org/TR/2001/REC-SVG-20010904/DTD/svg10.dtd">
<svg version="1.0" xmlns="http://www.w3.org/2000/svg"
 width="878.000000pt" height="879.000000pt" viewBox="0 0 878.000000 879.000000"
 preserveAspectRatio="xMidYMid meet">

<g transform="translate(0.000000,879.000000) scale(0.100000,-0.100000)"
fill="#0166AF" stroke="#0166AF">
<path d="M8243 5084 c-18 -9 -65 -44 -105 -77 -691 -580 -1859 -1150 -2911
-1421 -364 -94 -859 -174 -1377 -222 -233 -22 -986 -30 -1273 -15 -843 46
-1686 196 -2462 437 -44 14 -88 27 -97 30 -17 5 -18 -74 -18 -1563 l0 -1568
772 4 c560 2 815 0 925 -9 135 -11 158 -11 195 3 24 9 126 41 228 71 514 153
1304 460 1891 737 438 206 1077 565 1627 915 121 77 470 327 907 650 756 559
780 578 1150 894 132 113 276 234 320 270 115 93 473 396 523 444 23 22 42 45
42 52 0 6 -44 67 -98 135 -106 133 -172 226 -172 240 0 14 -32 10 -67 -7z"/>
</g>

<g transform="translate(0.000000,879.000000) scale(0.100000,-0.100000)"
fill="#00A852" stroke="#00A852">
<path d="M4206 8769 c-178 -23 -374 -89 -606 -205 -336 -168 -563 -325 -945
-653 -370 -318 -852 -820 -1271 -1323 -218 -262 -255 -318 -209 -318 8 0 125
-36 262 -81 339 -110 446 -141 673 -194 1434 -339 2595 -399 3730 -194 398 71
928 228 1250 368 91 40 193 84 227 98 l62 26 -22 40 c-32 58 -186 247 -606
747 -388 461 -535 618 -811 864 -299 267 -479 410 -660 522 -407 253 -737 346
-1074 303z"/>
<path d="M8658 3149 c-521 -479 -1153 -959 -1948 -1481 -451 -297 -1083 -678
-1522 -917 -174 -95 -319 -179 -322 -186 -3 -10 27 -15 132 -19 75 -4 241 -14
367 -22 317 -21 688 -40 1230 -63 253 -11 523 -25 600 -31 163 -13 1578 -81
1582 -76 2 1 2 655 1 1453 l-3 1450 -117 -108z"/>
</g>
</svg>
